<?xml version="1.0" encoding="UTF-8" standalone="no"?>
<!-- Created with Inkscape (http://www.inkscape.org/) -->

<svg
   version="1.1"
   id="svg2877"
   xml:space="preserve"
   width="682.66669"
   height="682.66669"
   viewBox="0 0 682.66669 682.66669"
   xmlns="http://www.w3.org/2000/svg"
   xmlns:svg="http://www.w3.org/2000/svg"><defs
     id="defs2881"><clipPath
       clipPathUnits="userSpaceOnUse"
       id="clipPath2895"><path
         d="M 0,512 H 512 V 0 H 0 Z"
         id="path2893" /></clipPath></defs><g
     id="g2883"
     transform="matrix(1.3333333,0,0,-1.3333333,0,682.66667)"><g
       id="g2885"
       transform="translate(320.2402,79.2402)"><path
         d="M 0,0 V 79.1"
         style="fill:none;stroke:#000000;stroke-width:15;stroke-linecap:round;stroke-linejoin:round;stroke-miterlimit:10;stroke-dasharray:none;stroke-opacity:1"
         id="path2887" /></g><g
       id="g2889"><g
         id="g2891"
         clip-path="url(#clipPath2895)"><g
           id="g2897"
           transform="translate(280.7998,158.3398)"><path
             d="m 0,0 v -24.6 c 0,-6.85 -2.78,-13.05 -7.26,-17.54 -4.49,-4.48 -10.69,-7.26 -17.54,-7.26"
             style="fill:none;stroke:#000000;stroke-width:15;stroke-linecap:round;stroke-linejoin:round;stroke-miterlimit:10;stroke-dasharray:none;stroke-opacity:1"
             id="path2899" /></g><g
           id="g2901"
           transform="translate(504.5,210.7402)"><path
             d="M 0,0 V 147.52"
             style="fill:none;stroke:#000000;stroke-width:15;stroke-linecap:round;stroke-linejoin:round;stroke-miterlimit:10;stroke-dasharray:none;stroke-opacity:1"
             id="path2903" /></g><g
           id="g2905"
           transform="translate(7.5,264.7568)"><path
             d="M 0,0 V -54.017"
             style="fill:none;stroke:#000000;stroke-width:15;stroke-linecap:round;stroke-linejoin:round;stroke-miterlimit:10;stroke-dasharray:none;stroke-opacity:1"
             id="path2907" /></g><g
           id="g2909"
           transform="translate(504.5,395.2861)"><path
             d="m 0,0 v 51.303 c 0,11.045 -8.954,20 -20,20 h -457 c -11.046,0 -20,-8.955 -20,-20 V -93.503"
             style="fill:none;stroke:#000000;stroke-width:15;stroke-linecap:round;stroke-linejoin:round;stroke-miterlimit:10;stroke-dasharray:none;stroke-opacity:1"
             id="path2911" /></g><g
           id="g2913"
           transform="translate(46.1802,158.3398)"><path
             d="m 0,0 h -18.68 c -11.05,0 -20,8.95 -20,20 V 52.4 H 4.09"
             style="fill:none;stroke:#000000;stroke-width:15;stroke-linecap:round;stroke-linejoin:round;stroke-miterlimit:10;stroke-dasharray:none;stroke-opacity:1"
             id="path2915" /></g><g
           id="g2917"
           transform="translate(237.8647,210.7402)"><path
             d="m 0,0 h 266.635 v -32.4 c 0,-11.05 -8.95,-20 -20,-20 H 12.985"
             style="fill:none;stroke:#000000;stroke-width:15;stroke-linecap:round;stroke-linejoin:round;stroke-miterlimit:10;stroke-dasharray:none;stroke-opacity:1"
             id="path2919" /></g><g
           id="g2921"
           transform="translate(257.6299,79.2402)"><path
             d="m 0,0 h 87.45 c 5.52,0 10,-4.48 10,-10 v -13.83 c 0,-5.52 -4.48,-10 -10,-10 H -7.18"
             style="fill:none;stroke:#000000;stroke-width:15;stroke-linecap:round;stroke-linejoin:round;stroke-miterlimit:10;stroke-dasharray:none;stroke-opacity:1"
             id="path2923" /></g><g
           id="g2925"
           transform="translate(85.9512,208.6123)"><path
             d="m 0,0 v -29.292 c 0,-22.252 18.039,-40.291 40.292,-40.291 4.005,0 7.875,0.584 11.527,1.672"
             style="fill:none;stroke:#000000;stroke-width:15;stroke-linecap:round;stroke-linejoin:round;stroke-miterlimit:10;stroke-dasharray:none;stroke-opacity:1"
             id="path2927" /></g><g
           id="g2929"
           transform="translate(139.6802,45.4102)"><path
             d="m 0,0 h -91.48 c -5.83,0 -10.42,4.97 -9.97,10.78 l 13.35,171.43 c 0.41,5.21 4.75,9.22 9.97,9.22 H 41.32 c 5.23,0 9.57,-4.01 9.97,-9.22 l 1.32,-16.89"
             style="fill:none;stroke:#000000;stroke-width:15;stroke-linecap:round;stroke-linejoin:round;stroke-miterlimit:10;stroke-dasharray:none;stroke-opacity:1"
             id="path2931" /></g><g
           id="g2933"
           transform="translate(143.0449,202.2705)"><path
             d="m 0,0 -12.586,-146.813 c -0.463,-5.402 3.797,-10.043 9.219,-10.043 h 110.772 c 5.422,0 9.682,4.641 9.219,10.043 L 104.038,0 c -0.41,4.786 -4.414,8.462 -9.218,8.462 H 9.218 C 4.415,8.462 0.41,4.786 0,0 Z"
             style="fill:none;stroke:#000000;stroke-width:15;stroke-linecap:round;stroke-linejoin:round;stroke-miterlimit:10;stroke-dasharray:none;stroke-opacity:1"
             id="path2935" /></g><g
           id="g2937"
           transform="translate(215.9912,87.4321)"><path
             d="m 0,0 c -3.606,-7.282 -11.109,-12.291 -19.785,-12.291 -12.189,0 -22.069,9.881 -22.069,22.07 0,12.189 9.88,22.07 22.069,22.07 5.971,0 11.388,-2.371 15.36,-6.224 L -19.849,8.202"
             style="fill:none;stroke:#000000;stroke-width:15;stroke-linecap:round;stroke-linejoin:round;stroke-miterlimit:10;stroke-dasharray:none;stroke-opacity:1"
             id="path2939" /></g><g
           id="g2941"
           transform="translate(219.8291,184.54)"><path
             d="m 0,0 v -12.765 c 0,-13.677 -11.088,-24.765 -24.765,-24.765 -13.677,0 -24.765,11.088 -24.765,24.765 V 0"
             style="fill:none;stroke:#000000;stroke-width:15;stroke-linecap:round;stroke-linejoin:round;stroke-miterlimit:10;stroke-dasharray:none;stroke-opacity:1"
             id="path2943" /></g><g
           id="g2945"
           transform="translate(274.0996,424.4399)"><path
             d="m 0,0 h 19.19 c 5.52,0 10,-4.48 10,-10 v -65.73"
             style="fill:none;stroke:#000000;stroke-width:15;stroke-linecap:round;stroke-linejoin:round;stroke-miterlimit:10;stroke-dasharray:none;stroke-opacity:1"
             id="path2947" /></g><g
           id="g2949"
           transform="translate(208.2402,348.71)"><path
             d="m 0,0 v 65.73 c 0,5.52 4.48,10 10,10 h 18.83"
             style="fill:none;stroke:#000000;stroke-width:15;stroke-linecap:round;stroke-linejoin:round;stroke-miterlimit:10;stroke-dasharray:none;stroke-opacity:1"
             id="path2951" /></g><g
           id="g2953"
           transform="translate(293.2949,321.7368)"><path
             d="m 0,0 h -75.055 c -5.523,0 -10,4.477 -10,10 v 16.976 c 0,5.522 4.477,10 10,10 H 0 c 5.522,0 10,-4.478 10,-10 V 10 C 10,4.477 5.522,0 0,0 Z"
             style="fill:none;stroke:#000000;stroke-width:15;stroke-linecap:round;stroke-linejoin:round;stroke-miterlimit:10;stroke-dasharray:none;stroke-opacity:1"
             id="path2955" /></g><g
           id="g2957"
           transform="translate(68.2002,348.71)"><path
             d="m 0,0 v 65.73 c 0,5.52 4.48,10 10,10 h 75.05 c 5.53,0 10,-4.48 10,-10 V 0.52"
             style="fill:none;stroke:#000000;stroke-width:15;stroke-linecap:round;stroke-linejoin:round;stroke-miterlimit:10;stroke-dasharray:none;stroke-opacity:1"
             id="path2959" /></g><g
           id="g2961"
           transform="translate(153.2593,321.7368)"><path
             d="m 0,0 h -75.055 c -5.523,0 -10,4.477 -10,10 v 16.976 c 0,5.522 4.477,10 10,10 H 0 c 5.523,0 10,-4.478 10,-10 V 10 C 10,4.477 5.523,0 0,0 Z"
             style="fill:none;stroke:#000000;stroke-width:15;stroke-linecap:round;stroke-linejoin:round;stroke-miterlimit:10;stroke-dasharray:none;stroke-opacity:1"
             id="path2963" /></g><g
           id="g2965"
           transform="translate(348.7402,348.71)"><path
             d="m 0,0 v 65.73 c 0,5.52 4.479,10 10,10 h 75.05 c 5.52,0 10,-4.48 10,-10 V 0.52"
             style="fill:none;stroke:#000000;stroke-width:15;stroke-linecap:round;stroke-linejoin:round;stroke-miterlimit:10;stroke-dasharray:none;stroke-opacity:1"
             id="path2967" /></g><g
           id="g2969"
           transform="translate(433.7959,321.7368)"><path
             d="m 0,0 h -75.055 c -5.523,0 -10,4.477 -10,10 v 16.976 c 0,5.522 4.477,10 10,10 H 0 c 5.522,0 10,-4.478 10,-10 V 10 C 10,4.477 5.522,0 0,0 Z"
             style="fill:none;stroke:#000000;stroke-width:15;stroke-linecap:round;stroke-linejoin:round;stroke-miterlimit:10;stroke-dasharray:none;stroke-opacity:1"
             id="path2971" /></g><g
           id="g2973"
           transform="translate(414.251,290.0889)"><path
             d="M 0,0 H 29.538"
             style="fill:none;stroke:#000000;stroke-width:15;stroke-linecap:round;stroke-linejoin:round;stroke-miterlimit:10;stroke-dasharray:none;stroke-opacity:1"
             id="path2975" /></g><g
           id="g2977"
           transform="translate(387.251,263.9687)"><path
             d="M 0,0 H 56.538"
             style="fill:none;stroke:#000000;stroke-width:15;stroke-linecap:round;stroke-linejoin:round;stroke-miterlimit:10;stroke-dasharray:none;stroke-opacity:1"
             id="path2979" /></g><g
           id="g2981"
           transform="translate(271.2412,290.0889)"><path
             d="M 0,0 H 29.538"
             style="fill:none;stroke:#000000;stroke-width:15;stroke-linecap:round;stroke-linejoin:round;stroke-miterlimit:10;stroke-dasharray:none;stroke-opacity:1"
             id="path2983" /></g><g
           id="g2985"
           transform="translate(244.2412,263.9687)"><path
             d="M 0,0 H 56.538"
             style="fill:none;stroke:#000000;stroke-width:15;stroke-linecap:round;stroke-linejoin:round;stroke-miterlimit:10;stroke-dasharray:none;stroke-opacity:1"
             id="path2987" /></g><g
           id="g2989"
           transform="translate(128.2314,290.0889)"><path
             d="M 0,0 H 29.538"
             style="fill:none;stroke:#000000;stroke-width:15;stroke-linecap:round;stroke-linejoin:round;stroke-miterlimit:10;stroke-dasharray:none;stroke-opacity:1"
             id="path2991" /></g><g
           id="g2993"
           transform="translate(101.2314,263.9687)"><path
             d="M 0,0 H 56.538"
             style="fill:none;stroke:#000000;stroke-width:15;stroke-linecap:round;stroke-linejoin:round;stroke-miterlimit:10;stroke-dasharray:none;stroke-opacity:1"
             id="path2995" /></g></g></g></g></svg>
